<mxfile host="65bd71144e">
    <diagram id="JR1neZjA6Q_2qBNck6ix" name="Página-1">
        <mxGraphModel dx="818" dy="329" grid="1" gridSize="10" guides="1" tooltips="1" connect="1" arrows="1" fold="1" page="1" pageScale="1" pageWidth="827" pageHeight="1169" math="0" shadow="0">
            <root>
                <mxCell id="0"/>
                <mxCell id="1" parent="0"/>
                <mxCell id="18" style="edgeStyle=none;html=1;" parent="1" source="2" target="9" edge="1">
                    <mxGeometry relative="1" as="geometry"/>
                </mxCell>
                <mxCell id="2" value="INICIO" style="rounded=1;whiteSpace=wrap;html=1;" parent="1" vertex="1">
                    <mxGeometry x="190" y="20" width="120" height="50" as="geometry"/>
                </mxCell>
                <mxCell id="3" value="&lt;code&gt;addTask()&lt;/code&gt;" style="rounded=0;whiteSpace=wrap;html=1;" parent="1" vertex="1">
                    <mxGeometry x="35" y="480" width="120" height="60" as="geometry"/>
                </mxCell>
                <mxCell id="4" value="Entrada datos: texto" style="shape=parallelogram;perimeter=parallelogramPerimeter;whiteSpace=wrap;html=1;fixedSize=1;" parent="1" vertex="1">
                    <mxGeometry x="20" y="190" width="205" height="60" as="geometry"/>
                </mxCell>
                <mxCell id="48" style="edgeStyle=none;html=1;entryX=0.5;entryY=0;entryDx=0;entryDy=0;" parent="1" source="9" target="4" edge="1">
                    <mxGeometry relative="1" as="geometry"/>
                </mxCell>
                <mxCell id="53" style="edgeStyle=none;html=1;" parent="1" source="9" target="52" edge="1">
                    <mxGeometry relative="1" as="geometry"/>
                </mxCell>
                <mxCell id="9" value="Agregar tarea" style="rounded=0;whiteSpace=wrap;html=1;" parent="1" vertex="1">
                    <mxGeometry x="190" y="100" width="120" height="60" as="geometry"/>
                </mxCell>
                <mxCell id="13" style="edgeStyle=none;html=1;entryX=0.5;entryY=0;entryDx=0;entryDy=0;" parent="1" source="10" target="3" edge="1">
                    <mxGeometry relative="1" as="geometry"/>
                </mxCell>
                <mxCell id="16" style="edgeStyle=none;html=1;entryX=0.442;entryY=-0.008;entryDx=0;entryDy=0;entryPerimeter=0;" parent="1" source="10" target="11" edge="1">
                    <mxGeometry relative="1" as="geometry"/>
                </mxCell>
                <mxCell id="17" style="edgeStyle=none;html=1;" parent="1" source="10" target="12" edge="1">
                    <mxGeometry relative="1" as="geometry"/>
                </mxCell>
                <mxCell id="55" style="edgeStyle=orthogonalEdgeStyle;html=1;" parent="1" source="10" target="57" edge="1">
                    <mxGeometry relative="1" as="geometry">
                        <mxPoint x="540" y="60" as="targetPoint"/>
                    </mxGeometry>
                </mxCell>
                <mxCell id="10" value="'agregar tarea' (onclick)" style="rhombus;whiteSpace=wrap;html=1;" parent="1" vertex="1">
                    <mxGeometry x="180" y="350" width="120" height="80" as="geometry"/>
                </mxCell>
                <mxCell id="11" value="&amp;nbsp;&lt;code&gt;resetForm()&lt;/code&gt;" style="rounded=0;whiteSpace=wrap;html=1;" parent="1" vertex="1">
                    <mxGeometry x="185" y="480" width="120" height="60" as="geometry"/>
                </mxCell>
                <mxCell id="12" value="&amp;nbsp;&lt;code&gt;renderListOfTasks()&lt;/code&gt;" style="rounded=0;whiteSpace=wrap;html=1;" parent="1" vertex="1">
                    <mxGeometry x="455" y="470" width="120" height="60" as="geometry"/>
                </mxCell>
                <mxCell id="21" value="&lt;code&gt;newTask&lt;/code&gt;" style="rounded=0;whiteSpace=wrap;html=1;" parent="1" vertex="1">
                    <mxGeometry x="35" y="555" width="120" height="60" as="geometry"/>
                </mxCell>
                <mxCell id="22" value="listOfTasks" style="rounded=0;whiteSpace=wrap;html=1;" parent="1" vertex="1">
                    <mxGeometry x="35" y="640" width="120" height="60" as="geometry"/>
                </mxCell>
                <mxCell id="23" value="limpiar campos de entrada" style="rounded=0;whiteSpace=wrap;html=1;" parent="1" vertex="1">
                    <mxGeometry x="180" y="555" width="120" height="60" as="geometry"/>
                </mxCell>
                <mxCell id="25" value="listUIElement" style="rounded=0;whiteSpace=wrap;html=1;" parent="1" vertex="1">
                    <mxGeometry x="600" y="555" width="120" height="60" as="geometry"/>
                </mxCell>
                <mxCell id="26" value="Bucle (Iterar sobre listOfTasks)" style="rounded=0;whiteSpace=wrap;html=1;" parent="1" vertex="1">
                    <mxGeometry x="462.5" y="555" width="120" height="60" as="geometry"/>
                </mxCell>
                <mxCell id="27" value="Crear elementos de tarea (li, p, button)" style="rounded=0;whiteSpace=wrap;html=1;" parent="1" vertex="1">
                    <mxGeometry x="327.5" y="555" width="120" height="60" as="geometry"/>
                </mxCell>
                <mxCell id="28" value="Botón &quot;Eliminar&quot;" style="rounded=0;whiteSpace=wrap;html=1;" parent="1" vertex="1">
                    <mxGeometry x="455" y="670" width="120" height="60" as="geometry"/>
                </mxCell>
                <mxCell id="29" value="showDeleteConfirmation(index)" style="rounded=0;whiteSpace=wrap;html=1;" parent="1" vertex="1">
                    <mxGeometry x="420" y="750" width="190" height="60" as="geometry"/>
                </mxCell>
                <mxCell id="30" value="removeTask(index)" style="rounded=0;whiteSpace=wrap;html=1;" parent="1" vertex="1">
                    <mxGeometry x="455" y="830" width="125" height="60" as="geometry"/>
                </mxCell>
                <mxCell id="34" value="renderListOfTasks()" style="rounded=0;whiteSpace=wrap;html=1;" parent="1" vertex="1">
                    <mxGeometry x="455" y="910" width="125" height="60" as="geometry"/>
                </mxCell>
                <mxCell id="35" value="Botón &quot;Subir&quot;" style="rounded=0;whiteSpace=wrap;html=1;" parent="1" vertex="1">
                    <mxGeometry x="460" y="980" width="120" height="60" as="geometry"/>
                </mxCell>
                <mxCell id="36" value="moveTaskUp(index)" style="rounded=0;whiteSpace=wrap;html=1;" parent="1" vertex="1">
                    <mxGeometry x="460" y="1049" width="120" height="60" as="geometry"/>
                </mxCell>
                <mxCell id="37" value="renderListOfTasks()" style="rounded=0;whiteSpace=wrap;html=1;" parent="1" vertex="1">
                    <mxGeometry x="460" y="1130" width="120" height="60" as="geometry"/>
                </mxCell>
                <mxCell id="39" value="Botón &quot;Bajar&quot;" style="rounded=0;whiteSpace=wrap;html=1;" parent="1" vertex="1">
                    <mxGeometry x="460" y="1210" width="120" height="60" as="geometry"/>
                </mxCell>
                <mxCell id="40" value="moveTaskDown(index)" style="rounded=0;whiteSpace=wrap;html=1;" parent="1" vertex="1">
                    <mxGeometry x="452.5" y="1290" width="135" height="60" as="geometry"/>
                </mxCell>
                <mxCell id="41" value="renderListOfTasks()" style="rounded=0;whiteSpace=wrap;html=1;" parent="1" vertex="1">
                    <mxGeometry x="460" y="1360" width="120" height="60" as="geometry"/>
                </mxCell>
                <mxCell id="43" value="&quot;Fetch&quot; (onclick)" style="rhombus;whiteSpace=wrap;html=1;fillColor=#19141D;" parent="1" vertex="1">
                    <mxGeometry x="940" y="370" width="120" height="80" as="geometry"/>
                </mxCell>
                <mxCell id="49" style="edgeStyle=none;html=1;entryX=0.5;entryY=0;entryDx=0;entryDy=0;" parent="1" source="44" target="45" edge="1">
                    <mxGeometry relative="1" as="geometry"/>
                </mxCell>
                <mxCell id="44" value="fetch(url)" style="rounded=0;whiteSpace=wrap;html=1;" parent="1" vertex="1">
                    <mxGeometry x="945" y="470" width="120" height="60" as="geometry"/>
                </mxCell>
                <mxCell id="50" style="edgeStyle=none;html=1;entryX=0.5;entryY=0;entryDx=0;entryDy=0;" parent="1" source="45" target="46" edge="1">
                    <mxGeometry relative="1" as="geometry"/>
                </mxCell>
                <mxCell id="45" value="Procesar respuesta" style="rounded=0;whiteSpace=wrap;html=1;" parent="1" vertex="1">
                    <mxGeometry x="945" y="575" width="120" height="60" as="geometry"/>
                </mxCell>
                <mxCell id="51" style="edgeStyle=none;html=1;entryX=0.442;entryY=-0.083;entryDx=0;entryDy=0;entryPerimeter=0;" parent="1" source="46" target="47" edge="1">
                    <mxGeometry relative="1" as="geometry"/>
                </mxCell>
                <mxCell id="46" value="Añadir tarea recibida a listOfTasks con fecha actual" style="rounded=0;whiteSpace=wrap;html=1;" parent="1" vertex="1">
                    <mxGeometry x="820" y="700" width="370" height="60" as="geometry"/>
                </mxCell>
                <mxCell id="47" value="renderListOfTasks()" style="rounded=0;whiteSpace=wrap;html=1;" parent="1" vertex="1">
                    <mxGeometry x="950" y="830" width="120" height="60" as="geometry"/>
                </mxCell>
                <mxCell id="52" value="Entrada datos: fecha" style="shape=parallelogram;perimeter=parallelogramPerimeter;whiteSpace=wrap;html=1;fixedSize=1;" parent="1" vertex="1">
                    <mxGeometry x="280" y="190" width="205" height="60" as="geometry"/>
                </mxCell>
                <mxCell id="58" style="edgeStyle=orthogonalEdgeStyle;html=1;entryX=1;entryY=0.75;entryDx=0;entryDy=0;" parent="1" source="57" target="2" edge="1">
                    <mxGeometry relative="1" as="geometry"/>
                </mxCell>
                <mxCell id="57" value="No" style="text;html=1;strokeColor=none;fillColor=none;align=center;verticalAlign=middle;whiteSpace=wrap;rounded=0;" parent="1" vertex="1">
                    <mxGeometry x="507.5" y="40" width="60" height="30" as="geometry"/>
                </mxCell>
            </root>
        </mxGraphModel>
    </diagram>
</mxfile>